<?xml version="1.0" encoding="UTF-8" standalone="no"?>
<!-- Created with Inkscape (http://www.inkscape.org/) -->

<svg
   width="48"
   height="48"
   viewBox="0 0 12.7 12.7"
   version="1.1"
   id="svg5"
   inkscape:version="1.2.2 (732a01da63, 2022-12-09)"
   sodipodi:docname="logo and icons.svg"
   inkscape:export-filename="fj-logo-black.svg"
   inkscape:export-xdpi="96"
   inkscape:export-ydpi="96"
   xmlns:inkscape="http://www.inkscape.org/namespaces/inkscape"
   xmlns:sodipodi="http://sodipodi.sourceforge.net/DTD/sodipodi-0.dtd"
   xmlns="http://www.w3.org/2000/svg"
   xmlns:svg="http://www.w3.org/2000/svg"
   xmlns:rdf="http://www.w3.org/1999/02/22-rdf-syntax-ns#"
   xmlns:cc="http://creativecommons.org/ns#"
   xmlns:dc="http://purl.org/dc/elements/1.1/">
  <title
     id="title4653">Logos and Icons for Flexible Jobs</title>
  <sodipodi:namedview
     id="namedview7"
     pagecolor="#ffffff"
     bordercolor="#000000"
     borderopacity="0.25"
     inkscape:showpageshadow="2"
     inkscape:pageopacity="0.0"
     inkscape:pagecheckerboard="0"
     inkscape:deskcolor="#d1d1d1"
     inkscape:document-units="mm"
     showgrid="false"
     inkscape:zoom="3.5218272"
     inkscape:cx="64.029264"
     inkscape:cy="1.7036611"
     inkscape:window-width="1366"
     inkscape:window-height="715"
     inkscape:window-x="-8"
     inkscape:window-y="-8"
     inkscape:window-maximized="1"
     inkscape:current-layer="g5105" />
  <defs
     id="defs2" />
  <g
     inkscape:label="Layer 1"
     inkscape:groupmode="layer"
     id="layer1">
    <g
       id="g5744"
       transform="translate(42.345617,-0.3339221)">
      <rect
         style="font-size:3.175px;fill:#664ecd;fill-opacity:1;stroke:#000000;stroke-width:1.01255;stroke-dasharray:none;stroke-opacity:1"
         id="rect4190"
         width="9.3443594"
         height="10.021854"
         x="-40.667797"
         y="0.84019619"
         ry="2.0949578" />
      <path
         style="font-weight:bold;font-size:3.175px;-inkscape-font-specification:'sans-serif, Bold';fill:#000000;stroke-width:0.692209"
         d="m -37.19588,8.6591778 q -0.305315,0 -0.622373,-0.023504 -0.317058,-0.017644 -0.528429,-0.047006 V 7.9012035 q 0.211371,0.02938 0.399257,0.04113 0.187885,0.011747 0.422745,0.011747 0.352285,0 0.598886,-0.099889 0.2466,-0.099887 0.2466,-0.3878008 V 4.0408222 h 1.74969 v 3.5548411 q 0,0.2937887 -0.223116,0.5346951 -0.223115,0.2409065 -0.728058,0.3819251 -0.493201,0.1468943 -1.315202,0.1468943 z"
         id="path1113-3" />
      <path
         style="font-weight:bold;font-size:3.175px;-inkscape-font-specification:'sans-serif, Bold';stroke-width:0.514693"
         d="m -36.242733,2.9527732 q 0,-0.2594053 0.142055,-0.3520502 0.148232,-0.09882 0.358227,-0.09882 0.203818,0 0.35205,0.09882 0.148231,0.092645 0.148231,0.3520502 0,0.2532291 -0.148231,0.3520503 -0.148232,0.09882 -0.35205,0.09882 -0.209995,0 -0.358227,-0.09882 -0.142055,-0.098821 -0.142055,-0.3520503 z"
         id="path952-7" />
      <path
         style="font-weight:bold;font-size:3.175px;-inkscape-font-specification:'sans-serif, Bold';fill:#ffffff;stroke-width:0.514693"
         d="m -36.242733,5.1745914 q 0,-0.2594054 0.142055,-0.3520501 0.148232,-0.09882 0.358227,-0.09882 0.203818,0 0.35205,0.09882 0.148231,0.092645 0.148231,0.3520501 0,0.2532291 -0.148231,0.3520502 -0.148232,0.098822 -0.35205,0.098822 -0.209995,0 -0.358227,-0.098822 -0.142055,-0.098821 -0.142055,-0.3520502 z"
         id="path1115-9" />
      <path
         id="path4192"
         style="font-size:3.175px;fill:none;stroke:#000000;stroke-width:1.01255;stroke-dasharray:none;stroke-opacity:1"
         d="m -40.667685,8.7671549 v 1.6655321 c 0,1.160605 0.934357,2.094961 2.094962,2.094961 h 5.154208 c 1.160606,0 2.094963,-0.934356 2.094963,-2.094961 V 8.7671549 c 0,1.1606061 -0.934357,2.0949631 -2.094963,2.0949631 h -5.154208 c -1.160605,0 -2.094962,-0.934357 -2.094962,-2.0949631 z" />
    </g>
  </g>
  <metadata
     id="metadata4651">
    <rdf:RDF>
      <cc:Work
         rdf:about="">
        <dc:title>Logos and Icons for Flexible Jobs</dc:title>
      </cc:Work>
    </rdf:RDF>
  </metadata>
</svg>
