<?xml version="1.0" encoding="UTF-8" standalone="no"?>
<!-- Created with Inkscape (http://www.inkscape.org/) -->

<svg
   width="48"
   height="48"
   viewBox="0 0 12.7 12.7"
   version="1.1"
   id="svg5"
   inkscape:version="1.2.2 (732a01da63, 2022-12-09)"
   sodipodi:docname="logo and icons.svg"
   inkscape:export-filename="fj-logo-color.svg"
   inkscape:export-xdpi="96"
   inkscape:export-ydpi="96"
   xmlns:inkscape="http://www.inkscape.org/namespaces/inkscape"
   xmlns:sodipodi="http://sodipodi.sourceforge.net/DTD/sodipodi-0.dtd"
   xmlns="http://www.w3.org/2000/svg"
   xmlns:svg="http://www.w3.org/2000/svg"
   xmlns:rdf="http://www.w3.org/1999/02/22-rdf-syntax-ns#"
   xmlns:cc="http://creativecommons.org/ns#"
   xmlns:dc="http://purl.org/dc/elements/1.1/">
  <title
     id="title4653">Logos and Icons for Flexible Jobs</title>
  <sodipodi:namedview
     id="namedview7"
     pagecolor="#ffffff"
     bordercolor="#000000"
     borderopacity="0.25"
     inkscape:showpageshadow="2"
     inkscape:pageopacity="0.0"
     inkscape:pagecheckerboard="0"
     inkscape:deskcolor="#d1d1d1"
     inkscape:document-units="mm"
     showgrid="false"
     inkscape:zoom="3.5218272"
     inkscape:cx="64.029264"
     inkscape:cy="1.7036611"
     inkscape:window-width="1366"
     inkscape:window-height="715"
     inkscape:window-x="-8"
     inkscape:window-y="-8"
     inkscape:window-maximized="1"
     inkscape:current-layer="g5105" />
  <defs
     id="defs2" />
  <g
     inkscape:label="Layer 1"
     inkscape:groupmode="layer"
     id="layer1">
    <g
       id="g5709"
       transform="translate(-14.720377)">
      <rect
         style="font-size:3.175px;fill:none;fill-opacity:1;stroke:#000000;stroke-width:1.01255;stroke-dasharray:none;stroke-opacity:1"
         id="rect5043"
         width="9.3443594"
         height="10.021854"
         x="16.398197"
         y="0.50627375"
         ry="2.0949578" />
      <path
         id="path5045"
         style="font-size:3.175px;fill:none;stroke:#000000;stroke-width:1.01255;stroke-dasharray:none;stroke-opacity:1"
         d="m 16.398311,8.4332323 v 1.6655317 c 0,1.160605 0.934357,2.094962 2.094963,2.094962 h 5.154207 c 1.160607,0 2.094964,-0.934357 2.094964,-2.094962 V 8.4332323 c 0,1.1606062 -0.934357,2.0949627 -2.094964,2.0949627 h -5.154207 c -1.160606,0 -2.094963,-0.9343565 -2.094963,-2.0949627 z" />
      <path
         sodipodi:type="star"
         style="fill:none;stroke:#000000;stroke-width:2.40648;stroke-dasharray:none;stroke-opacity:1"
         id="path5047"
         inkscape:flatsided="false"
         sodipodi:sides="12"
         sodipodi:cx="9.087225"
         sodipodi:cy="19.101719"
         sodipodi:r1="10.622783"
         sodipodi:r2="5.3113918"
         sodipodi:arg1="1.2877005"
         sodipodi:arg2="1.5494999"
         inkscape:rounded="0"
         inkscape:randomized="0"
         d="M 12.054482,29.301665 9.2003301,24.411906 6.5569723,29.41876 6.5300832,23.757029 1.7374414,26.771412 4.5450203,21.854765 -1.1127209,22.068976 3.7770375,19.214824 -1.229816,16.571466 4.4319152,16.544577 1.4175317,11.751935 6.3341793,14.559514 6.1199675,8.901773 l 2.8541523,4.889758 2.6433582,-5.0068531 0.02689,5.6617311 4.792641,-3.014383 -2.807578,4.916647 5.657741,-0.214212 -4.889759,2.854153 5.006854,2.643358 -5.661731,0.02689 3.014383,4.792641 -4.916647,-2.807578 z"
         transform="matrix(0.07696219,0,0,0.07696219,22.509756,0.68887872)"
         inkscape:transform-center-x="0.030007364"
         inkscape:transform-center-y="-0.010672049" />
      <g
         id="g5057"
         transform="matrix(1.3901712,0,0,1.3901712,12.262484,-3.5910716)">
        <path
           d="M 5.4224254,8.0619608 4.1778262,8.0862362 4.2021017,4.9140431 6.5775656,4.8897676 V 5.4406807 H 5.4224253 v 0.817484 H 6.4975944 V 6.8090778 H 5.4224253 Z"
           style="font-weight:bold;font-size:3.175px;-inkscape-font-specification:'sans-serif, Bold';stroke-width:0.370237"
           id="path5049"
           sodipodi:nodetypes="ccccccccccc" />
        <path
           style="font-weight:bold;font-size:3.175px;-inkscape-font-specification:'sans-serif, Bold';fill:#000000;stroke-width:0.497931"
           d="m 6.8635558,8.1833387 q -0.2196238,0 -0.4476949,-0.016907 -0.228071,-0.012692 -0.3801182,-0.033813 v -0.494518 q 0.1520472,0.021134 0.2872003,0.029586 0.1351521,0.00845 0.3040951,0.00845 0.2534119,0 0.4308004,-0.071854 0.1773887,-0.071852 0.1773887,-0.278959 V 4.86119 h 1.2586141 v 2.5571247 q 0,0.2113327 -0.160495,0.3846253 Q 8.1728514,7.9762327 7.8096277,8.0776724 7.4548506,8.1833387 6.8635558,8.1833387 Z"
           id="path5051" />
        <path
           style="font-weight:bold;font-size:3.175px;-inkscape-font-specification:'sans-serif, Bold';stroke-width:0.370237"
           d="m 7.5138924,4.1133704 q 0,-0.1865995 0.1021855,-0.2532423 0.1066284,-0.071085 0.2576852,-0.071085 0.146614,0 0.2532423,0.071085 0.1066283,0.066643 0.1066283,0.2532423 0,0.1821568 -0.1066283,0.2532424 -0.1066283,0.071085 -0.2532423,0.071085 -0.1510568,0 -0.2576852,-0.071085 Q 7.5138924,4.2955272 7.5138924,4.1133704 Z"
           id="path5053" />
        <path
           style="font-weight:bold;font-size:3.175px;-inkscape-font-specification:'sans-serif, Bold';fill:#ffffff;stroke-width:0.370237"
           d="m 7.5138924,5.4970808 q 0,-0.1865996 0.1021855,-0.2532423 0.1066284,-0.071085 0.2576852,-0.071085 0.146614,0 0.2532423,0.071085 0.1066283,0.066643 0.1066283,0.2532423 0,0.1821568 -0.1066283,0.2532423 -0.1066283,0.071086 -0.2532423,0.071086 -0.1510568,0 -0.2576852,-0.071086 Q 7.5138924,5.6792376 7.5138924,5.4970808 Z"
           id="path5055" />
      </g>
      <rect
         style="font-size:3.175px;fill:none;fill-opacity:1;stroke:#000000;stroke-width:1.01255;stroke-dasharray:none;stroke-opacity:1"
         id="rect5059"
         width="9.3443594"
         height="10.021854"
         x="16.398197"
         y="0.50627375"
         ry="2.0949578" />
      <path
         id="path5061"
         style="font-size:3.175px;fill:none;stroke:#000000;stroke-width:1.01255;stroke-dasharray:none;stroke-opacity:1"
         d="m 16.398311,8.4332323 v 1.6655317 c 0,1.160605 0.934357,2.094962 2.094963,2.094962 h 5.154207 c 1.160607,0 2.094964,-0.934357 2.094964,-2.094962 V 8.4332323 c 0,1.1606062 -0.934357,2.0949627 -2.094964,2.0949627 h -5.154207 c -1.160606,0 -2.094963,-0.9343565 -2.094963,-2.0949627 z" />
      <path
         sodipodi:type="star"
         style="fill:none;stroke:#000000;stroke-width:2.40648;stroke-dasharray:none;stroke-opacity:1"
         id="path5063"
         inkscape:flatsided="false"
         sodipodi:sides="12"
         sodipodi:cx="9.087225"
         sodipodi:cy="19.101719"
         sodipodi:r1="10.622783"
         sodipodi:r2="5.3113918"
         sodipodi:arg1="1.2877005"
         sodipodi:arg2="1.5494999"
         inkscape:rounded="0"
         inkscape:randomized="0"
         d="M 12.054482,29.301665 9.2003301,24.411906 6.5569723,29.41876 6.5300832,23.757029 1.7374414,26.771412 4.5450203,21.854765 -1.1127209,22.068976 3.7770375,19.214824 -1.229816,16.571466 4.4319152,16.544577 1.4175317,11.751935 6.3341793,14.559514 6.1199675,8.901773 l 2.8541523,4.889758 2.6433582,-5.0068531 0.02689,5.6617311 4.792641,-3.014383 -2.807578,4.916647 5.657741,-0.214212 -4.889759,2.854153 5.006854,2.643358 -5.661731,0.02689 3.014383,4.792641 -4.916647,-2.807578 z"
         transform="matrix(0.07696219,0,0,0.07696219,22.509756,0.68887872)"
         inkscape:transform-center-x="0.030007364"
         inkscape:transform-center-y="-0.010672049" />
      <g
         id="g5073"
         transform="matrix(1.3901712,0,0,1.3901712,12.262484,-3.5910716)">
        <path
           d="M 5.4224254,8.0619608 4.1778262,8.0862362 4.2021017,4.9140431 6.5775656,4.8897676 V 5.4406807 H 5.4224253 v 0.817484 H 6.4975944 V 6.8090778 H 5.4224253 Z"
           style="font-weight:bold;font-size:3.175px;-inkscape-font-specification:'sans-serif, Bold';stroke-width:0.370237"
           id="path5065"
           sodipodi:nodetypes="ccccccccccc" />
        <path
           style="font-weight:bold;font-size:3.175px;-inkscape-font-specification:'sans-serif, Bold';fill:#000000;stroke-width:0.497931"
           d="m 6.8635558,8.1833387 q -0.2196238,0 -0.4476949,-0.016907 -0.228071,-0.012692 -0.3801182,-0.033813 v -0.494518 q 0.1520472,0.021134 0.2872003,0.029586 0.1351521,0.00845 0.3040951,0.00845 0.2534119,0 0.4308004,-0.071854 0.1773887,-0.071852 0.1773887,-0.278959 V 4.86119 h 1.2586141 v 2.5571247 q 0,0.2113327 -0.160495,0.3846253 Q 8.1728514,7.9762327 7.8096277,8.0776724 7.4548506,8.1833387 6.8635558,8.1833387 Z"
           id="path5067" />
        <path
           style="font-weight:bold;font-size:3.175px;-inkscape-font-specification:'sans-serif, Bold';stroke-width:0.370237"
           d="m 7.5138924,4.1133704 q 0,-0.1865995 0.1021855,-0.2532423 0.1066284,-0.071085 0.2576852,-0.071085 0.146614,0 0.2532423,0.071085 0.1066283,0.066643 0.1066283,0.2532423 0,0.1821568 -0.1066283,0.2532424 -0.1066283,0.071085 -0.2532423,0.071085 -0.1510568,0 -0.2576852,-0.071085 Q 7.5138924,4.2955272 7.5138924,4.1133704 Z"
           id="path5069" />
        <path
           style="font-weight:bold;font-size:3.175px;-inkscape-font-specification:'sans-serif, Bold';fill:#ffffff;stroke-width:0.370237"
           d="m 7.5138924,5.4970808 q 0,-0.1865996 0.1021855,-0.2532423 0.1066284,-0.071085 0.2576852,-0.071085 0.146614,0 0.2532423,0.071085 0.1066283,0.066643 0.1066283,0.2532423 0,0.1821568 -0.1066283,0.2532423 -0.1066283,0.071086 -0.2532423,0.071086 -0.1510568,0 -0.2576852,-0.071086 Q 7.5138924,5.6792376 7.5138924,5.4970808 Z"
           id="path5071" />
      </g>
    </g>
  </g>
  <metadata
     id="metadata4651">
    <rdf:RDF>
      <cc:Work
         rdf:about="">
        <dc:title>Logos and Icons for Flexible Jobs</dc:title>
      </cc:Work>
    </rdf:RDF>
  </metadata>
</svg>
